<svg width="512" height="512" viewBox="0 0 512 512" fill="none" xmlns="http://www.w3.org/2000/svg">
<g clip-path="url(#clip0)">
<rect width="512" height="512" fill="none"/>
<path d="M515 0H3V512H515V0Z" fill="none"/>
<path d="M171.35 316.96L185.16 302.81H192.31L176.27 318.87L192.4 338.29H185.23L172.46 322.5L171.36 323.6V338.28H166V302.8H171.35V316.96Z" fill="#F4E6DC"/>
<path d="M219.11 307.84H204.89V316.37H218.7V321.4H204.89V333.26H219.11V338.29H199.53V302.81H219.11V307.84Z" fill="#F4E6DC"/>
<path d="M240.51 323.16L251.49 338.28H244.94L234.81 323.76H233.84V338.28H228.49V302.8H234.76C239.45 302.8 242.83 303.68 244.92 305.44C247.22 307.4 248.37 309.99 248.37 313.21C248.37 315.72 247.65 317.88 246.21 319.69C244.77 321.5 242.87 322.66 240.51 323.16ZM233.85 319.1H235.55C240.62 319.1 243.16 317.16 243.16 313.29C243.16 309.66 240.69 307.84 235.76 307.84H233.85V319.1Z" fill="#F4E6DC"/>
<path d="M259.18 338.28V300.39L285.05 327.46V302.81H290.4V340.45L264.53 313.45V338.29H259.18V338.28Z" fill="#F4E6DC"/>
<path d="M320.83 307.84H306.61V316.37H320.42V321.4H306.61V333.26H320.83V338.29H301.25V302.81H320.83V307.84V307.84Z" fill="#F4E6DC"/>
<path d="M335.57 302.81V333.25H346V338.28H330.21V302.8H335.57V302.81Z" fill="#F4E6DC"/>
<path d="M200.12 361.85V370.11H197.68V361.85H196.81V359.58H197.68V355.51C197.68 354.18 197.91 353.25 198.37 352.7C199 351.94 199.93 351.55 201.14 351.55C201.57 351.55 202.12 351.68 202.77 351.93V354.42L202.52 354.29C201.99 354.02 201.56 353.89 201.22 353.89C200.79 353.89 200.5 354.04 200.34 354.35C200.19 354.65 200.11 355.24 200.11 356.1V359.57H202.76V361.84H200.12V361.85Z" fill="#F4E6DC"/>
<path d="M215.98 365.42H208.43C208.49 366.29 208.78 366.97 209.27 367.49C209.77 367.99 210.41 368.25 211.18 368.25C211.79 368.25 212.29 368.11 212.68 367.82C213.07 367.53 213.51 367 214.01 366.22L216.06 367.37C215.74 367.91 215.41 368.37 215.05 368.76C214.7 369.15 214.32 369.46 213.91 369.71C213.51 369.96 213.07 370.14 212.6 370.26C212.13 370.37 211.62 370.43 211.08 370.43C209.51 370.43 208.25 369.92 207.3 368.92C206.35 367.9 205.87 366.55 205.87 364.88C205.87 363.21 206.33 361.87 207.25 360.84C208.18 359.82 209.41 359.32 210.95 359.32C212.5 359.32 213.72 359.81 214.63 360.8C215.52 361.78 215.97 363.14 215.97 364.88L215.98 365.42ZM213.49 363.43C213.15 362.13 212.33 361.48 211.04 361.48C210.74 361.48 210.47 361.52 210.21 361.62C209.95 361.71 209.71 361.84 209.5 362.01C209.29 362.18 209.11 362.38 208.95 362.62C208.8 362.86 208.68 363.13 208.6 363.43H213.49Z" fill="#F4E6DC"/>
<path d="M223.29 351.85V370.11H220.86V351.85H223.29Z" fill="#F4E6DC"/>
<path d="M231.02 351.85V370.11H228.59V351.85H231.02Z" fill="#F4E6DC"/>
<path d="M235.82 364.77C235.82 363.25 236.36 361.95 237.45 360.89C238.54 359.82 239.86 359.29 241.43 359.29C243 359.29 244.33 359.83 245.43 360.9C246.51 361.97 247.05 363.29 247.05 364.86C247.05 366.44 246.51 367.76 245.42 368.83C244.32 369.89 242.98 370.42 241.39 370.42C239.81 370.42 238.49 369.88 237.42 368.8C236.35 367.73 235.82 366.39 235.82 364.77ZM238.31 364.82C238.31 365.87 238.59 366.7 239.15 367.32C239.73 367.94 240.49 368.25 241.43 368.25C242.38 368.25 243.14 367.94 243.71 367.33C244.28 366.72 244.56 365.9 244.56 364.88C244.56 363.86 244.27 363.04 243.71 362.43C243.13 361.81 242.37 361.5 241.43 361.5C240.5 361.5 239.75 361.81 239.17 362.43C238.59 363.04 238.31 363.84 238.31 364.82Z" fill="#F4E6DC"/>
<path d="M253.16 359.58L255.92 365.59L258.89 358.62L261.89 365.59L264.61 359.58H267.33L261.82 370.9L258.89 364.12L255.93 370.9L250.43 359.58H253.16Z" fill="#F4E6DC"/>
<path d="M277.31 361.38L275.3 362.45C274.98 361.8 274.59 361.48 274.12 361.48C273.9 361.48 273.71 361.55 273.55 361.7C273.39 361.85 273.31 362.04 273.31 362.27C273.31 362.67 273.78 363.07 274.72 363.47C276.01 364.02 276.88 364.54 277.33 365.01C277.78 365.48 278 366.11 278 366.9C278 367.92 277.62 368.77 276.88 369.45C276.15 370.1 275.27 370.42 274.24 370.42C272.47 370.42 271.22 369.56 270.49 367.84L272.57 366.88C272.86 367.38 273.08 367.7 273.23 367.84C273.53 368.11 273.88 368.25 274.29 368.25C275.11 368.25 275.52 367.87 275.52 367.13C275.52 366.7 275.2 366.29 274.57 365.92C274.32 365.8 274.08 365.68 273.83 365.56C273.58 365.44 273.34 365.32 273.08 365.2C272.37 364.85 271.88 364.51 271.59 364.16C271.22 363.72 271.04 363.15 271.04 362.46C271.04 361.54 271.35 360.79 271.98 360.19C272.62 359.59 273.4 359.29 274.32 359.29C275.66 359.29 276.66 359.99 277.31 361.38Z" fill="#F4E6DC"/>
<path d="M282.39 351.85H284.82V360.46C285.69 359.68 286.64 359.29 287.69 359.29C288.88 359.29 289.83 359.68 290.54 360.45C291.15 361.12 291.45 362.19 291.45 363.66V370.12H289.02V363.89C289.02 363.05 288.87 362.44 288.57 362.06C288.27 361.68 287.79 361.49 287.13 361.49C286.28 361.49 285.68 361.75 285.34 362.28C285 362.81 284.83 363.73 284.83 365.03V370.12H282.4V351.85H282.39Z" fill="#F4E6DC"/>
<path d="M296.38 355.21C296.38 354.78 296.53 354.42 296.84 354.11C297.15 353.8 297.52 353.65 297.95 353.65C298.39 353.65 298.76 353.8 299.07 354.11C299.38 354.41 299.53 354.78 299.53 355.22C299.53 355.66 299.37 356.03 299.07 356.34C298.77 356.65 298.4 356.8 297.96 356.8C297.52 356.8 297.14 356.64 296.84 356.34C296.54 356.03 296.38 355.65 296.38 355.21ZM299.18 359.58V370.11H296.75V359.58H299.18Z" fill="#F4E6DC"/>
<path d="M306.91 375.85H304.48V359.59H306.91V360.74C307.87 359.78 308.96 359.3 310.18 359.3C311.63 359.3 312.82 359.83 313.76 360.9C314.71 361.96 315.19 363.3 315.19 364.91C315.19 366.49 314.72 367.8 313.77 368.86C312.83 369.9 311.65 370.43 310.22 370.43C308.99 370.43 307.88 369.94 306.91 368.95V375.85V375.85ZM312.7 364.91C312.7 363.9 312.43 363.08 311.88 362.44C311.32 361.8 310.63 361.48 309.78 361.48C308.89 361.48 308.16 361.79 307.61 362.41C307.05 363.03 306.78 363.84 306.78 364.85C306.78 365.84 307.06 366.65 307.61 367.29C308.16 367.92 308.88 368.23 309.77 368.23C310.61 368.23 311.31 367.91 311.86 367.28C312.42 366.66 312.7 365.87 312.7 364.91Z" fill="#F4E6DC"/>
<path d="M256 269C228.99 269 207.01 247.02 207.01 220.01C207.01 208.91 210.83 198.03 217.76 189.39C219.64 187.04 223.07 186.67 225.41 188.55C227.76 190.43 228.13 193.86 226.25 196.2C220.78 203.02 217.9 211.25 217.9 220.01C217.9 241.02 234.99 258.11 256 258.11C277.01 258.11 294.1 241.02 294.1 220.01C294.1 210.72 290.72 201.77 284.58 194.81C282.59 192.56 282.81 189.12 285.06 187.13C287.31 185.14 290.75 185.35 292.74 187.61C300.64 196.56 304.99 208.07 304.99 220.02C304.99 247.02 283.01 269 256 269Z" fill="#67E0A3"/>
<path d="M256 158.72C261.998 158.72 266.86 153.858 266.86 147.86C266.86 141.862 261.998 137 256 137C250.002 137 245.14 141.862 245.14 147.86C245.14 153.858 250.002 158.72 256 158.72Z" fill="#EDB88B"/>
<path d="M281 219.21C281 234.05 269.81 246.08 256 246.08C242.19 246.08 231 234.05 231 219.21C231 209.38 241.97 191.06 249.37 179.81C252.6 174.9 259.39 174.9 262.62 179.81C270.03 191.06 281 209.38 281 219.21Z" fill="#EDB88B"/>
<path d="M256 269C219.98 269 190.68 239.7 190.68 203.68C190.68 179.02 204.33 156.72 226.31 145.49C228.99 144.12 232.27 145.18 233.63 147.86C235 150.54 233.94 153.82 231.26 155.18C212.94 164.54 201.57 183.13 201.57 203.68C201.57 233.69 225.99 258.11 256 258.11C286.01 258.11 310.43 233.69 310.43 203.68C310.43 183.13 299.05 164.54 280.74 155.18C278.06 153.81 277 150.53 278.37 147.86C279.74 145.18 283.02 144.12 285.69 145.49C307.66 156.72 321.32 179.02 321.32 203.68C321.32 239.7 292.02 269 256 269Z" fill="#67E0A3"/>
</g>
<defs>
<clipPath id="clip0">
<rect width="512" height="512" fill="none"/>
</clipPath>
</defs>
</svg>
