<?xml version="1.0" encoding="utf-8"?>
<!-- Generator: Adobe Illustrator 23.0.4, SVG Export Plug-In . SVG Version: 6.00 Build 0)  -->
<svg version="1.1" id="Layer_1" xmlns="http://www.w3.org/2000/svg" xmlns:xlink="http://www.w3.org/1999/xlink" x="0px" y="0px"
	 viewBox="0 0 2228.3 811.6" style="enable-background:new 0 0 2228.3 811.6;" xml:space="preserve">
<style type="text/css">
	.st0{fill:#3588C9;}
	.st1{fill-rule:evenodd;clip-rule:evenodd;fill:#2B2B2B;}
</style>
<title>Vector</title>
<desc>Created with Sketch.</desc>
<g>
	<g>
		<rect x="601.4" y="485.9" class="st0" width="80.1" height="80.1"/>
		<polygon class="st0" points="601.4,245.5 601.4,325.7 521.2,325.7 521.2,485.9 601.4,485.9 601.4,405.8 681.5,405.8 681.5,325.7 
			761.6,325.7 761.6,245.5 		"/>
		<rect x="441.1" y="485.9" class="st0" width="80.1" height="80.1"/>
		<polygon class="st0" points="441.1,325.7 361,325.7 361,245.5 200.7,245.5 200.7,325.7 280.9,325.7 280.9,405.8 361,405.8 
			361,485.9 441.1,485.9 		"/>
		<rect x="280.9" y="485.9" class="st0" width="80.1" height="80.1"/>
	</g>
	<path id="Word_1_" class="st1" d="M921.9,245.5h58.6l34.1,165.2l35.7-165.2h56.9V566h-33V277.2l-43,181h-35.4l-42.3-181V566h-31.6
		V245.5z M1160,337.5h39.1l54.1,191.3l46.5-191.3h37.4c-41.9,158.3-66,248.9-72.3,271.8c-6.3,22.9-22.9,34.3-49.9,34.3h-23v-34.3
		c2.5,0,10.2,0,23,0c12.8,0,20.9-14.4,24.2-43.3h-8.2L1160,337.5z M1423.3,282.9h35.9v54.6h63.2v33h-63.2c0,80,0,126.9,0,140.8
		s6.7,20.6,20.1,20.1h43.1V566c-7.6,0-25.3,0-53,0c-27.8,0-43.1-16.7-46.1-50.2V370.5h-40.2v-33h40.2V282.9z M1582.8,245.5h35.9
		c0,50.1,0,85.2,0,105.2c0-6.2,8.6-10.6,25.9-13.3c11,0,22,0,33,0c35.8,0,56.4,19.6,61.8,58.9V566h-35.9c0-92,0-147.5,0-166.7
		s-9.6-28.7-28.7-28.7c1,0-8.1,0-27.3,0c-19.2,0-28.7,9.6-28.7,28.7V566h-35.9V245.5z M1790.1,247h44.9l71.4,125.9l73.2-125.9h42.5
		l-94.5,155.4L2027.6,566h-46.2l-75.5-132.8L1827.1,566h-42l98.7-163.5L1790.1,247z"/>
</g>
</svg>
