<?xml version="1.0" encoding="UTF-8"?>
<svg width="80px" height="80px" viewBox="0 0 80 80" version="1.1" xmlns="http://www.w3.org/2000/svg" xmlns:xlink="http://www.w3.org/1999/xlink">
    <!-- Generator: Sketch 63.1 (92452) - https://sketch.com -->
    <title>logo</title>
    <desc>Created with Sketch.</desc>
    <g id="logo" stroke="none" stroke-width="1" fill="none" fill-rule="evenodd">
        <g id="logo_wef" transform="translate(1.000000, 16.000000)" fill-rule="nonzero">
            <path d="M27.21177,7.86531985 C27.1042979,7.43434342 27.0505619,7.11111113 27.0505619,6.68013469 C27.0505619,4.9023569 28.2327542,3.28619529 30.3821947,3.28619529 C30.8658188,3.28619529 31.2957069,3.34006734 31.618123,3.44781145 C31.9942751,3.12457912 32.3704272,2.85521886 32.8003153,2.58585858 C32.1017472,2.15488215 31.2419709,1.93939394 30.3821947,1.93939394 C27.7491301,1.93939394 25.5459535,4.04040404 25.5459535,6.68013469 C25.5459535,7.59595961 25.8683696,8.45791244 26.2445217,9.21212121 C26.3519937,9.05050507 26.4594657,8.83501682 26.6206738,8.72727273 C26.7818818,8.40404039 26.9968259,8.0808081 27.21177,7.86531985 L27.21177,7.86531985 Z" id="Path" fill="#041D44"></path>
            <path d="M33.7208528,3.39393939 C33.2939305,3.61228176 32.9737387,3.88520971 32.6001816,4.15813767 C33.3472958,4.75857917 33.7742181,5.79570541 33.7742181,6.88741721 C33.7742181,8.68874172 32.4934511,10.2717239 30.4655699,10.2717239 C29.3448988,10.2717239 28.4376888,9.78045353 27.8506705,9.01625527 C27.74394,9.18001202 27.6372094,9.34376882 27.4771135,9.50752558 C27.3170176,9.72586793 27.1035564,9.99879593 26.9968259,10.2171383 C27.9040359,11.0905077 29.0780723,11.6363636 30.4122047,11.6363636 C33.0804693,11.6363636 35.215081,9.56211118 35.215081,6.94200281 C35.2684463,5.52277745 34.6814281,4.26730885 33.7208528,3.39393939 L33.7208528,3.39393939 Z" id="Path" fill="#041D44"></path>
            <path d="M25.0984208,18.8385117 C25.0984208,20.2470272 24.2899745,21.4468738 23.1278329,21.916379 C23.1278329,22.125048 23.1278329,22.4380514 23.1278329,22.6467204 C23.1278329,22.8553893 23.1278329,23.0640583 23.1278329,23.2727273 C25.0478929,22.7510548 26.5132018,21.0295359 26.5132018,18.8385117 C26.5132018,17.2734944 25.6542276,15.8649789 24.4415581,15.030303 C24.2899745,15.4998082 24.1383908,15.9171461 23.9868071,16.2823168 C24.6941976,16.9083237 25.0984208,17.8473341 25.0984208,18.8385117 L25.0984208,18.8385117 Z" id="Path" fill="#041D44"></path>
            <path d="M22.2715804,22.4869383 C22.168513,22.4869383 22.0654455,22.4869383 21.962378,22.4869383 C20.0040968,22.4869383 18.7157539,20.9515848 18.7157539,19.1515152 C18.7157539,17.4573319 19.8494957,15.8690352 21.962378,15.8690352 C22.4261815,15.8690352 22.889985,15.9219784 23.1991873,16.0808081 C23.3022547,15.6572623 23.4053222,15.2337165 23.611457,14.8631139 C23.0961198,14.7042842 22.529249,14.5454545 21.962378,14.5454545 C19.3856922,14.5454545 17.3243435,16.6102403 17.3243435,19.0985719 C17.3243435,21.7457332 19.3856922,23.7575758 21.962378,23.7575758 C22.0139118,23.7575758 22.1169792,23.7575758 22.2715804,23.7575758 C22.2715804,23.5458029 22.2200466,23.2281435 22.2200466,23.0163706 C22.2200466,22.8575409 22.2715804,22.645768 22.2715804,22.4869383 L22.2715804,22.4869383 Z" id="Path" fill="#041D44"></path>
            <path d="M25.4679496,27.4900484 C27.6520585,27.4900484 28.8533185,29.1253362 28.8533185,30.8696432 C28.8533185,32.4504214 27.8704694,33.8131612 26.3961959,34.1947283 C26.6146068,34.6308051 26.8876205,34.9578626 27.1060313,35.3939394 C28.9625239,34.7398243 30.3821947,33.0500269 30.3821947,30.8696432 C30.3821947,28.2531827 28.1434831,26.1818182 25.4679496,26.1818182 C24.812717,26.1818182 24.1574843,26.2908374 23.611457,26.5633853 C23.6660597,26.9994621 23.7206625,27.4900484 23.8298679,27.8716156 C24.3212924,27.5990676 24.8673197,27.4900484 25.4679496,27.4900484 L25.4679496,27.4900484 Z" id="Path" fill="#041D44"></path>
            <path d="M22.1845265,30.8320945 C22.1845265,29.950829 22.5005581,29.1732418 23.0799493,28.5511721 C22.9746055,28.0846198 22.8692616,27.6180675 22.7639178,27.1515152 C21.5524633,27.9809415 20.7097123,29.3287593 20.7097123,30.8320945 C20.7097123,33.4240518 22.8165897,35.3939394 25.4501864,35.3939394 C25.6082022,35.3939394 25.8715618,35.3939394 26.0295776,35.3421003 C25.8188899,34.9273871 25.5028583,34.5126739 25.2921705,34.1497999 C23.395981,33.9942824 22.1845265,32.6464646 22.1845265,30.8320945 L22.1845265,30.8320945 Z" id="Path" fill="#041D44"></path>
            <path d="M48.3730121,26.6666667 L48.3730121,32.1397504 C48.3730121,33.3860962 47.9563512,34.5782531 46.3938733,34.5782531 C44.8313954,34.5782531 44.4147346,33.3860962 44.4147346,32.1397504 L44.4147346,26.6666667 L42.9564218,26.6666667 L42.9564218,32.4106952 C42.9564218,34.4156863 44.1543216,35.8787879 46.3417907,35.8787879 C48.5292599,35.8787879 49.7271596,34.3614973 49.7271596,32.4106952 L49.7271596,26.6666667 L48.3730121,26.6666667 L48.3730121,26.6666667 Z" id="Path" fill="#041D44"></path>
            <polygon id="Path" fill="#041D44" points="49.7224641 9.90476189 53.5961526 9.90476189 53.5961526 11.1515152 48.2762872 11.1515152 48.2762872 2.42424242 49.7224641 2.42424242"></polygon>
            <polygon id="Path" fill="#041D44" points="0.397499277 14.5454545 5.71736459 14.5454545 5.71736459 15.7996734 1.9174608 15.7996734 1.9174608 17.8900381 5.60879591 17.8900381 5.60879591 19.1442569 1.9174608 19.1442569 1.9174608 22.0185085 5.71736459 22.0185085 5.71736459 23.2727273 0.397499277 23.2727273"></polygon>
            <polygon id="Path" fill="#041D44" points="29.8985706 14.0606061 36.1214264 20.3132969 36.1214264 14.5375062 37.6365565 14.5375062 37.6365565 23.7575758 31.4137007 17.5578738 31.4137007 23.3866534 29.8985706 23.3866534"></polygon>
            <polygon id="Path" fill="#041D44" points="66.1703797 14.5454545 67.621252 14.5454545 67.621252 23.2727273 66.1703797 23.2727273"></polygon>
            <polygon id="Path" fill="#041D44" points="14.9225248 27.9208855 14.9225248 30.0112502 18.1829121 30.0112502 18.1829121 31.265469 14.9225248 31.265469 14.9225248 35.3939394 13.4553505 35.3939394 13.4553505 26.6666667 18.2915917 26.6666667 18.2915917 27.9208855"></polygon>
            <polygon id="Path" fill="#041D44" points="20.725681 8.04519772 20.7781497 8.04519772 22.1948034 2.58038007 23.611457 2.58038007 21.1454303 11.6363636 18.0497797 5.13062832 15.0065977 11.6363636 12.4881023 2.58038007 13.9572246 2.58038007 15.3214096 8.04519772 15.3214096 8.04519772 18.0497797 2.42424242"></polygon>
            <polygon id="Path" fill="#041D44" points="54.9920156 17.8740211 54.9392981 17.8740211 53.5159304 23.5396663 52.1452802 23.5396663 54.570277 14.0606061 57.6805986 20.9247532 60.7909208 14.0606061 63.268635 23.5396663 61.8452673 23.5396663 60.4218996 17.8740211 60.3691821 17.8740211 57.6805986 23.7575758"></polygon>
            <polygon id="Path" fill="#041D44" points="55.4622114 29.9952332 55.4622114 29.9952332 54.0980267 35.6608784 52.6289043 35.6608784 55.0949308 26.1818182 58.2430501 33.0459653 61.2862321 26.1818182 63.7522591 35.6608784 62.2831367 35.6608784 60.9189515 29.9952332 60.9189515 29.9952332 58.2430501 35.8787879"></polygon>
            <path d="M34.7650383,30.5108225 L35.399795,30.5108225 C36.5635155,30.5108225 37.991718,30.5627706 37.991718,29.2121212 C37.991718,27.8095238 36.5106191,27.9134199 35.3468986,27.9134199 L34.7650383,27.9134199 L34.7650383,30.5108225 L34.7650383,30.5108225 Z M35.7171733,26.6666667 C36.5635155,26.6666667 37.4627541,26.6666667 38.2033035,27.0822511 C38.943853,27.4978355 39.4199205,28.3290043 39.4199205,29.1601731 C39.4199205,30.4069264 38.5206819,31.4458875 37.2511685,31.6017316 L40.0546771,35.3939394 L38.4148891,35.3939394 L35.7700697,31.7056277 L34.7650383,31.7056277 L34.7650383,35.3939394 L33.2839394,35.3939394 L33.2839394,26.6666667 L35.7171733,26.6666667 L35.7171733,26.6666667 Z" id="Shape" fill="#041D44"></path>
            <path d="M39.6012795,6.32034633 L40.2360362,6.32034633 C41.3997567,6.32034633 42.7750628,6.37229435 42.7750628,5.02164504 C42.7750628,3.61904762 41.2939639,3.72294372 40.1831398,3.72294372 L39.6012795,3.72294372 L39.6012795,6.32034633 L39.6012795,6.32034633 Z M40.5534145,2.42424242 C41.3997567,2.42424242 42.2989953,2.42424242 43.0395447,2.83982684 C43.7800942,3.25541125 44.2032653,4.08658009 44.2032653,4.9177489 C44.2032653,6.16450216 43.3569231,7.20346322 42.0345134,7.35930735 L44.8909183,11.1515152 L43.2511303,11.1515152 L40.5534145,7.46320344 L39.6012795,7.46320344 L39.6012795,11.1515152 L38.1201806,11.1515152 L38.1201806,2.42424242 L40.5534145,2.42424242 L40.5534145,2.42424242 Z" id="Shape" fill="#041D44"></path>
            <path d="M56.4978973,2.42424242 L58.9674673,2.42424242 C61.8760717,2.42424242 64.2358832,3.73072038 64.2358832,6.76174924 C64.2358832,9.79277808 61.930951,11.1515152 58.9674673,11.1515152 L56.4978973,11.1515152 L56.4978973,2.42424242 L56.4978973,2.42424242 Z M58.0345186,9.94955544 L58.912588,9.94955544 C60.9431231,9.94955544 62.8090204,9.27018691 62.8090204,6.76174924 C62.8090204,4.20105244 60.9431231,3.62620214 58.912588,3.62620214 L58.0345186,3.62620214 L58.0345186,9.94955544 L58.0345186,9.94955544 Z" id="Shape" fill="#041D44"></path>
            <path d="M77.5086783,22.0104493 C77.0250542,22.3281087 76.4876941,22.4339951 75.8428621,22.4339951 C73.8546296,22.4339951 72.5112292,20.9515848 72.5112292,19.1515152 C72.5112292,17.4043887 73.6934213,15.816092 75.8428621,15.816092 C76.4876941,15.816092 77.0250542,15.9219784 77.5086783,16.1866945 L78.2072467,15.12783 C77.5624142,14.7572274 76.7026384,14.5454545 75.8428621,14.5454545 C73.2097972,14.5454545 71.0066209,16.6102403 71.0066209,19.2044584 C71.0066209,21.7986764 73.2097972,23.7575758 75.8428621,23.7575758 C76.7563744,23.7575758 77.5624142,23.5987461 78.2609827,23.1752003 L77.5086783,22.0104493 L77.5086783,22.0104493 Z" id="Path" fill="#041D44"></path>
            <path d="M15.1155527,22.0104493 C14.6283194,22.3281087 14.0869492,22.4339951 13.4914419,22.4339951 C11.4342348,22.4339951 10.0808091,20.9515848 10.0808091,19.1515152 C10.0808091,17.4043887 11.2718237,15.816092 13.4914419,15.816092 C14.0869492,15.816092 14.6283194,15.9219784 15.1155527,16.1866945 L15.8734711,15.12783 C15.1696897,14.7572274 14.3034973,14.5454545 13.4914419,14.5454545 C10.7845904,14.5454545 8.61910931,16.6102403 8.61910931,19.2044584 C8.61910931,21.7986764 10.7845904,23.7575758 13.4914419,23.7575758 C14.3576343,23.7575758 15.1696897,23.5987461 15.8734711,23.1752003 L15.1155527,22.0104493 L15.1155527,22.0104493 Z" id="Path" fill="#041D44"></path>
            <path d="M50.2107837,19.2044584 C50.2107837,21.7986764 48.0076071,23.7575758 45.3745424,23.7575758 C42.6877418,23.7575758 40.5383012,21.7457332 40.5383012,19.2044584 C40.5383012,16.6102403 42.6877418,14.5454545 45.3745424,14.5454545 C48.0076071,14.5454545 50.2107837,16.6102403 50.2107837,19.2044584 L50.2107837,19.2044584 Z M48.7599114,19.2044584 C48.7599114,17.4573319 47.577719,15.8690352 45.4282784,15.8690352 C43.2251019,15.8690352 42.0429096,17.4573319 42.0429096,19.2044584 C42.0429096,21.004528 43.3863099,22.4869383 45.4282784,22.4869383 C47.3627749,22.4869383 48.7599114,21.004528 48.7599114,19.2044584 L48.7599114,19.2044584 Z" id="Shape" fill="#041D44"></path>
            <path d="M63.0095232,41.4712005 C58.5531073,44.9946796 52.9295352,46.9118668 47.1998583,46.9118668 C41.2579708,46.9118668 35.5282936,44.8910479 31.0718781,41.2121212 L30.3821947,42.0411751 C35.0508205,45.8755494 41.0457606,48 47.1998583,48 C53.2478508,48 59.0836333,45.9273652 63.7522591,42.2484386 L63.0095232,41.4712005 L63.0095232,41.4712005 Z" id="Path" fill="#006AAF"></path>
            <path d="M62.5201841,41.0320816 C58.1770252,44.5885491 52.6686282,46.5525686 46.9483701,46.5525686 C40.4336316,46.5525686 34.3426159,44.0577331 29.7346302,39.5457966 C25.1796098,35.0869417 22.6372728,29.0887201 22.6372728,22.7189274 C22.6372728,17.8354196 24.1203027,13.0580751 26.9804318,9.07695467 C29.7875956,5.14891578 33.6540664,2.17634585 38.2620521,0.477734455 L38.103156,0 C33.4422049,1.751693 29.4698035,4.77734455 26.6626397,8.75846502 C23.7495453,12.8988303 22.1605847,17.7292564 22.1605847,22.7189274 C22.1605847,29.1948834 24.755887,35.2992681 29.4168381,39.9173678 C34.1307545,44.4823859 40.3277009,47.030303 46.9483701,47.030303 C52.7745589,47.030303 58.3888865,45.013202 62.7850108,41.4036528 L62.5201841,41.0320816 L62.5201841,41.0320816 Z" id="Path" fill="#006AAF"></path>
        </g>
    </g>
</svg>