<svg width="150" height="150" viewBox="0 0 250 250" fill="none" xmlns="http://www.w3.org/2000/svg">
<path fill-rule="evenodd" clip-rule="evenodd" d="M153 81C151.895 81 151 80.1046 151 79V58C151 56.8954 151.895 56 153 56H174C175.105 56 176 56.8954 176 58V79C176 80.1046 175.105 81 174 81H153Z" fill="#8313DD"/>
<path fill-rule="evenodd" clip-rule="evenodd" d="M72 110C70.8954 110 70 109.105 70 108V87C70 85.8954 70.8954 85 72 85H93C94.1046 85 95 85.8954 95 87V108C95 109.105 94.1046 110 93 110H72Z" fill="#8313DD"/>
<path fill-rule="evenodd" clip-rule="evenodd" d="M111.586 98.9156C110.805 98.1338 110.805 96.8662 111.586 96.0844L126.084 81.5864C126.866 80.8046 128.134 80.8045 128.916 81.5863L143.414 96.0844C144.195 96.8662 144.195 98.1338 143.414 98.9156L128.916 113.414C128.134 114.195 126.866 114.195 126.084 113.414L111.586 98.9156Z" fill="#8313DD"/>
<path fill-rule="evenodd" clip-rule="evenodd" d="M153 139C151.895 139 151 138.105 151 137V116C151 114.895 151.895 114 153 114H174C175.105 114 176 114.895 176 116V137C176 138.105 175.105 139 174 139H153Z" fill="#8313DD"/>
<rect x="97" y="96" width="12" height="3" fill="#CDA0F1"/>
<path d="M126 69C126 67.8954 126.895 67 128 67H149V70H126V69Z" fill="#CDA0F1"/>
<path d="M126 69C126 67.8954 126.895 67 128 67H129V79H126V69Z" fill="#CDA0F1"/>
<path d="M126 126C126 127.105 126.895 128 128 128H149V125H126V126Z" fill="#CDA0F1"/>
<path d="M126 126C126 127.105 126.895 128 128 128H129V116H126V126Z" fill="#CDA0F1"/>
</svg>