<!DOCTYPE svg PUBLIC "-//W3C//DTD SVG 20010904//EN" "http://www.w3.org/TR/2001/REC-SVG-20010904/DTD/svg10.dtd">
<svg version="1.0" xmlns="http://www.w3.org/2000/svg" width="250px" height="278px" viewBox="0 0 2500 2780" preserveAspectRatio="xMidYMid meet">
<g id="layer101" fill="#020202" stroke="none">
 <path d="M1008 2666 c-56 -11 -82 -27 -207 -131 -27 -22 -67 -62 -90 -88 -36 -42 -41 -54 -41 -96 0 -34 -7 -58 -23 -82 l-23 -34 -120 0 c-65 0 -132 5 -149 12 -16 6 -50 16 -75 23 -25 7 -58 17 -73 23 -15 5 -30 7 -33 4 -5 -5 123 -69 161 -80 26 -8 138 -21 208 -25 l27 -2 -37 -38 c-44 -43 -73 -123 -73 -200 0 -36 -9 -71 -31 -119 -28 -61 -30 -75 -28 -152 2 -48 11 -115 22 -151 10 -36 18 -81 17 -100 -1 -19 -2 -93 -4 -165 -3 -134 -12 -223 -27 -263 -5 -13 -5 -41 1 -67 5 -24 14 -78 19 -122 10 -91 32 -142 101 -238 47 -64 81 -127 79 -143 -5 -34 6 -54 43 -79 22 -15 62 -49 87 -74 50 -50 112 -84 176 -95 22 -3 45 -10 50 -14 15 -11 73 -20 146 -23 49 -1 73 -7 87 -20 27 -25 177 -26 219 -3 76 42 111 56 141 56 62 0 86 20 189 159 10 13 25 31 33 41 8 9 20 23 25 32 73 108 105 163 161 273 36 72 69 137 73 145 21 37 28 78 18 96 -6 11 -14 64 -17 120 -4 62 -13 114 -23 134 -10 18 -17 38 -17 43 0 6 -7 18 -15 27 -9 10 -22 50 -30 91 -9 41 -24 92 -34 114 -34 70 -33 96 2 173 8 18 6 26 -11 45 -15 16 -22 36 -22 63 0 42 -27 94 -67 131 -19 18 -24 32 -22 65 1 24 -3 53 -8 66 -5 13 -4 59 2 114 l10 91 75 38 c41 21 105 52 141 69 74 34 154 88 145 97 -3 4 -16 2 -29 -4 -12 -6 -51 -24 -87 -41 -36 -16 -112 -49 -170 -72 -112 -44 -130 -58 -130 -100 0 -14 -7 -35 -15 -46 -14 -18 -16 -18 -42 12 -16 17 -46 43 -68 59 -51 36 -71 59 -96 115 -12 25 -31 68 -44 95 -21 45 -118 145 -142 145 -4 0 -30 21 -58 46 -27 26 -60 50 -73 55 -31 12 -133 10 -204 -5z m7 -62 c5 -30 -2 -164 -10 -164 -1 0 -16 7 -33 16 -20 10 -32 23 -32 36 0 17 -2 18 -15 8 -8 -7 -15 -21 -15 -31 0 -18 -36 -59 -52 -59 -18 0 -6 58 22 110 17 30 33 63 37 73 3 9 13 17 22 17 10 0 26 7 37 15 28 21 31 19 39 -21z m289 -43 c10 -11 41 -35 67 -52 47 -29 109 -108 109 -136 0 -8 12 -39 26 -69 l26 -54 -21 -58 -21 -57 3 65 c4 70 1 90 -14 90 -6 0 -8 -4 -4 -9 3 -6 -12 -47 -34 -93 -22 -46 -40 -96 -42 -113 -4 -44 9 -91 32 -111 24 -22 24 -50 -1 -108 -24 -52 -52 -66 -97 -44 -36 17 -40 40 -12 79 28 40 44 97 41 152 -2 28 -22 39 -22 12 0 -8 -4 -15 -9 -15 -16 0 -41 61 -41 98 0 40 -10 36 -26 -11 -15 -44 -38 -45 -58 -2 -9 19 -22 35 -28 35 -7 0 -32 -21 -56 -47 l-45 -48 6 32 c4 18 18 51 32 73 20 31 22 40 10 40 -12 0 -14 6 -8 28 11 38 10 108 -1 102 -12 -6 -27 46 -19 66 4 11 9 12 18 4 7 -6 19 -9 26 -8 10 2 13 -6 11 -26 -4 -28 -3 -28 34 -21 38 7 80 31 103 59 7 8 14 43 17 77 3 49 1 60 -10 56 -8 -3 -17 1 -20 9 -3 8 -19 14 -36 14 -31 0 -39 17 -18 38 12 12 46 -7 82 -47z m-146 -41 c5 0 12 14 16 31 6 29 26 32 26 4 0 -8 13 -21 30 -30 31 -16 54 -48 43 -59 -14 -14 -32 -4 -52 29 -24 41 -44 47 -35 10 6 -26 -12 -85 -26 -85 -16 0 -40 70 -40 117 l1 48 14 -32 c8 -18 18 -33 23 -33z m-135 -138 c28 -29 35 -66 16 -78 -14 -8 -74 52 -84 84 -5 18 -3 22 17 22 14 0 36 -13 51 -28z m-287 -53 c9 -10 28 -19 41 -19 13 0 26 -7 29 -15 8 -21 34 -19 34 3 0 10 -7 27 -15 38 -8 10 -15 27 -15 37 0 17 2 17 29 -2 16 -12 41 -21 55 -21 39 0 76 -41 76 -85 0 -19 5 -35 10 -35 6 0 10 14 10 30 0 17 5 30 10 30 16 0 32 -51 26 -81 -3 -15 1 -35 10 -47 12 -17 13 -30 5 -59 -16 -57 -13 -91 11 -139 32 -64 79 -106 114 -102 l29 4 -30 13 c-23 10 -26 14 -15 21 8 6 27 10 43 10 32 0 34 9 9 40 -12 14 -30 23 -51 24 l-32 1 22 18 c13 10 38 17 66 17 27 0 42 4 38 10 -3 6 -18 10 -33 10 -26 1 -26 1 -7 16 24 18 72 12 95 -13 8 -9 10 -13 3 -9 -8 4 -16 -7 -23 -31 -6 -21 -16 -48 -23 -61 -11 -18 -10 -34 3 -87 8 -36 18 -65 23 -65 4 0 7 5 7 11 0 5 15 -1 33 -14 17 -14 43 -28 57 -32 14 -4 32 -14 42 -22 10 -9 18 -10 22 -4 3 5 -6 19 -20 30 -25 20 -25 21 -6 21 12 0 37 -9 57 -20 20 -11 41 -20 48 -20 7 0 25 -7 41 -15 16 -9 32 -13 35 -9 9 9 -42 44 -66 44 -12 0 -35 14 -52 32 -34 37 -32 45 28 101 45 42 61 93 42 133 -15 34 -27 30 -27 -11 0 -19 -5 -40 -10 -45 -17 -17 -42 -1 -49 31 -5 24 -1 39 21 70 l27 40 25 -23 c40 -38 51 -68 42 -118 -4 -25 -11 -53 -15 -62 -11 -27 12 -22 26 5 23 44 40 57 59 45 26 -17 47 -4 71 43 l21 43 15 -35 c9 -21 13 -53 10 -81 -2 -27 -1 -48 3 -48 15 0 78 -66 84 -87 10 -33 2 -29 -45 22 -23 25 -45 45 -50 45 -17 0 -9 -29 11 -43 22 -15 39 -77 22 -77 -6 0 -16 14 -24 30 -7 17 -16 30 -19 30 -8 0 -19 -37 -19 -63 0 -10 -17 -40 -37 -68 l-38 -50 -11 33 -11 33 -5 -55 c-5 -68 -1 -77 26 -52 11 11 38 25 58 31 36 12 94 67 118 111 11 21 12 21 42 -19 l30 -41 -19 -31 -20 -30 -17 25 c-21 32 -39 34 -27 4 29 -78 20 -161 -17 -157 -9 1 -27 1 -40 0 -22 -1 -22 -2 13 -53 35 -52 43 -93 29 -146 -8 -29 -25 -28 -58 3 -15 14 -31 25 -37 25 -14 0 -11 -26 6 -40 8 -7 15 -21 15 -32 0 -13 14 -25 43 -38 61 -28 65 -26 62 23 -4 56 38 137 70 137 22 0 24 -26 7 -89 -13 -49 -20 -60 -33 -56 -15 5 -19 -4 -25 -52 -6 -51 -27 -113 -38 -113 -3 0 -11 -3 -20 -6 -13 -5 -16 2 -16 41 0 53 -16 53 -26 -1 -8 -45 9 -99 46 -144 34 -42 48 -35 25 12 -9 19 -10 26 -3 17 8 -9 22 -18 33 -21 13 -2 19 -11 18 -23 -1 -11 -3 -38 -4 -60 -3 -50 -32 -115 -67 -149 -53 -50 -63 -64 -72 -96 -11 -38 -3 -129 12 -148 18 -21 29 1 19 36 -14 49 -4 100 31 148 17 24 35 44 40 44 11 0 10 -24 -1 -36 -12 -12 -17 -93 -7 -121 8 -24 2 -34 -46 -92 -26 -30 -34 -33 -108 -40 -51 -6 -87 -15 -99 -25 -10 -9 -23 -16 -29 -16 -7 0 -12 -7 -12 -15 0 -19 2 -19 45 5 39 22 70 26 80 10 3 -5 15 -10 26 -10 22 0 24 -17 6 -42 -9 -11 -40 -20 -96 -28 -55 -7 -93 -18 -112 -32 -36 -27 -28 -41 11 -21 39 19 150 31 134 13 -6 -6 -31 -14 -55 -17 -47 -5 -56 -8 -140 -47 -57 -26 -159 -37 -159 -16 0 6 5 10 12 10 9 0 9 3 0 12 -9 9 -51 13 -135 14 -116 0 -203 15 -259 45 -10 5 -24 9 -32 9 -8 0 -50 33 -93 73 -43 41 -88 79 -99 85 -12 6 -25 24 -29 39 -13 54 -80 172 -105 188 -6 3 -15 15 -21 26 -10 20 -10 20 15 4 14 -10 26 -21 26 -26 0 -5 4 -9 10 -9 14 0 70 -61 70 -76 0 -8 7 -14 15 -14 8 0 15 3 15 7 0 14 -44 99 -67 129 -13 18 -29 47 -34 65 -14 45 -20 137 -9 144 5 3 9 53 9 112 0 90 -3 110 -19 131 -11 13 -22 40 -26 61 -9 49 -15 57 -29 37 -11 -14 -14 -8 -24 41 -9 47 -8 70 4 122 15 61 15 68 -6 134 -26 83 -39 184 -28 212 4 11 8 15 8 8 1 -19 52 -74 63 -67 6 4 7 21 3 43 -11 54 -15 86 -16 144 -1 44 6 161 10 177 4 14 30 -49 31 -73 0 -16 4 -26 9 -23 5 4 10 39 11 79 0 39 2 82 3 94 2 22 89 123 106 123 5 0 14 14 21 30 12 29 14 30 30 15 29 -27 33 0 5 41 -25 37 -31 64 -18 78 4 4 11 -5 15 -19 4 -15 15 -36 24 -46z m924 -190 c0 -4 3 -16 6 -26 6 -16 5 -15 -9 2 -22 28 -30 14 -12 -21 14 -27 13 -29 -5 -36 -14 -5 -20 -17 -20 -37 0 -52 -18 -43 -25 11 -4 29 -13 64 -20 78 -10 20 -14 77 -6 98 2 6 91 -61 91 -69z m-585 -114 c5 -30 4 -37 -5 -29 -6 6 -13 28 -14 48 -4 47 9 34 19 -19z m714 -338 c-6 -13 -19 -29 -30 -35 -18 -11 -17 -9 3 23 26 39 43 47 27 12z m-1299 -575 c0 -42 -1 -44 -15 -26 -15 19 -20 66 -9 77 14 14 24 -7 24 -51z m1519 -79 c-2 -21 1 -50 5 -65 13 -46 -11 -33 -27 15 -9 27 -11 51 -6 65 13 35 30 26 28 -15z m-109 -39 c0 -8 7 -14 15 -14 8 0 15 5 15 10 0 23 19 7 30 -25 6 -19 20 -40 30 -45 18 -9 18 -11 0 -47 -23 -46 -76 -110 -84 -102 -4 3 2 17 12 30 23 31 45 100 40 125 -4 15 -8 11 -22 -19 -21 -48 -35 -40 -29 17 5 37 2 46 -15 55 -13 7 -19 17 -16 26 7 18 24 10 24 -11z m-1424 -136 c9 -29 20 -57 24 -63 12 -17 39 -105 32 -105 -48 1 -64 28 -76 122 -3 27 -8 59 -12 73 -12 48 14 25 32 -27z m1436 -205 c-16 -32 -38 -76 -48 -97 -17 -35 -19 -37 -22 -17 -7 47 9 91 50 136 23 25 43 43 45 41 3 -2 -9 -31 -25 -63z"/>
 <path d="M1330 2451 c0 -44 -16 -77 -55 -116 -52 -53 -48 -68 18 -61 114 14 125 18 153 47 32 33 22 40 -13 7 -31 -29 -41 -16 -14 18 11 15 21 34 21 43 -1 19 -23 51 -37 51 -5 0 -18 9 -28 20 -26 29 -45 25 -45 -9z"/>
 <path d="M1181 2249 c-13 -38 -14 -59 -3 -59 8 0 32 65 32 84 0 19 -20 2 -29 -25z"/>
 <path d="M860 2246 c0 -8 5 -18 10 -21 13 -8 13 -62 -1 -70 -19 -13 -69 -88 -69 -106 0 -15 4 -16 29 -6 15 5 37 7 47 3 17 -7 15 -9 -13 -21 -36 -15 -46 -41 -13 -32 33 8 33 -10 0 -33 -17 -12 -27 -26 -24 -31 4 -6 13 -4 23 5 9 8 34 21 55 28 22 7 44 22 50 33 6 10 21 27 33 37 11 10 25 31 31 46 8 24 6 33 -19 63 -25 30 -28 32 -29 12 0 -30 -11 -54 -21 -47 -12 7 -11 121 1 129 13 8 13 25 -1 25 -5 0 -19 -20 -30 -45 -18 -41 -36 -65 -23 -30 7 18 -14 75 -27 75 -5 0 -9 -6 -9 -14z"/>
 <path d="M771 2188 c2 -28 -28 -129 -48 -161 -3 -5 -12 5 -19 22 -19 45 -38 41 -28 -6 13 -60 8 -119 -15 -172 -26 -61 -26 -70 -2 -64 18 5 73 73 83 103 3 10 10 5 21 -17 22 -42 21 -56 -2 -50 -13 3 -31 -10 -62 -45 -57 -65 -56 -64 -60 -122 -3 -34 0 -51 9 -54 9 -3 11 3 7 20 -4 14 2 41 13 66 19 43 20 43 26 16 l7 -27 24 34 c13 19 32 45 41 58 l18 25 13 -30 c6 -16 12 -56 13 -90 0 -56 -2 -62 -35 -94 -19 -19 -35 -44 -35 -56 0 -12 17 -39 38 -60 54 -57 88 -105 96 -137 4 -16 12 -27 19 -24 16 5 10 57 -9 78 -23 25 -16 28 24 8 21 -11 62 -21 92 -23 30 -3 62 -7 70 -10 21 -8 149 25 183 48 15 10 27 26 27 36 0 10 5 20 11 22 9 3 7 18 -4 53 -12 37 -15 74 -12 145 5 84 3 93 -9 77 -8 -11 -18 -38 -21 -60 -11 -61 -29 -92 -72 -117 -52 -31 -114 -32 -194 -3 -54 19 -71 32 -102 72 -20 26 -40 63 -43 82 -3 19 -9 43 -14 54 -9 22 -41 183 -46 230 -1 17 3 57 11 90 13 60 10 115 -6 115 -6 0 -9 -15 -8 -32z"/>
 <path d="M649 2163 c-6 -16 -18 -37 -28 -48 -44 -49 -54 -201 -15 -230 26 -19 39 -3 26 33 -6 17 -9 41 -8 54 7 61 19 115 31 138 19 39 27 80 15 80 -6 0 -15 -12 -21 -27z"/>
 <path d="M992 1988 c-5 -7 -11 -22 -13 -33 -2 -11 -19 -26 -37 -34 -17 -8 -32 -18 -32 -23 0 -12 44 -10 58 4 6 6 14 9 18 5 12 -12 -49 -78 -78 -84 -15 -3 -28 -12 -28 -20 0 -22 68 -5 107 26 32 25 33 29 33 99 0 70 -7 85 -28 60z"/>
 <path d="M1030 1878 c0 -39 73 -90 113 -80 32 8 19 32 -17 32 -25 0 -43 8 -65 31 -18 17 -31 25 -31 17z"/>
 <path d="M557 1809 c-12 -14 -16 -29 -12 -47 7 -33 41 -79 51 -70 8 9 -5 138 -15 138 -3 0 -15 -9 -24 -21z"/>
 <path d="M736 1715 c-20 -38 -26 -62 -22 -80 8 -31 25 -33 19 -2 -3 13 6 36 21 56 24 33 35 81 19 81 -5 0 -21 -25 -37 -55z"/>
 <path d="M1075 1720 c10 -11 28 -20 39 -20 20 0 20 1 -4 20 -34 27 -59 27 -35 0z"/>
 <path d="M1304 1695 c4 -16 17 -42 28 -57 19 -28 21 -28 39 -12 10 9 19 18 19 19 0 2 -21 20 -47 41 l-46 38 7 -29z"/>
 <path d="M1526 1608 c-10 -38 -7 -58 9 -58 11 0 15 11 15 40 0 43 -14 54 -24 18z"/>
 <path d="M1304 1591 c7 -40 11 -45 25 -36 17 10 13 30 -11 51 l-21 19 7 -34z"/>
 <path d="M640 1523 c2 -39 74 -203 90 -203 5 0 28 -27 50 -60 23 -33 45 -58 50 -55 12 8 40 -5 40 -19 0 -6 12 -26 28 -44 34 -40 92 -49 137 -22 17 10 45 21 62 25 18 3 47 20 65 37 31 29 32 31 13 44 -10 8 -29 14 -42 14 -13 0 -50 11 -83 25 -65 27 -80 30 -80 15 0 -5 6 -10 14 -10 8 0 18 -5 22 -12 5 -7 1 -9 -13 -6 -10 3 -46 2 -78 -3 -55 -7 -59 -6 -86 21 -16 16 -29 32 -29 35 0 4 -16 29 -35 55 -19 26 -35 54 -35 62 0 23 -58 108 -75 108 -8 0 -15 -3 -15 -7z"/>
 <path d="M1712 1518 c-5 -7 -17 -28 -26 -46 -14 -27 -15 -36 -5 -49 11 -12 17 -7 40 39 16 29 28 56 29 61 0 12 -27 8 -38 -5z"/>
 <path d="M495 1489 c-9 -14 -5 -17 30 -21 21 -2 30 2 33 15 3 13 -3 17 -27 17 -16 0 -33 -5 -36 -11z"/>
 <path d="M1632 1458 c-7 -7 -12 -21 -12 -32 0 -25 47 -86 66 -86 19 0 18 3 -11 46 -14 21 -23 45 -20 55 7 22 -8 32 -23 17z"/>
 <path d="M1395 1383 c-15 -16 -39 -44 -54 -63 -14 -19 -36 -43 -49 -53 -21 -18 -82 -100 -82 -111 0 -18 37 -1 69 32 20 20 53 51 73 69 44 37 88 105 88 133 0 27 -12 25 -45 -7z"/>
 <path d="M498 1375 c-8 -9 28 -149 39 -152 20 -7 23 15 9 59 -8 24 -16 54 -18 67 -3 24 -19 37 -30 26z"/>
 <path d="M765 1070 c-3 -5 4 -12 16 -15 26 -9 18 -17 -21 -21 -58 -7 -63 -24 -29 -88 11 -21 18 -40 16 -42 -8 -8 -51 48 -63 82 -11 33 -10 36 9 44 26 11 24 12 -31 15 -36 3 -42 1 -38 -13 2 -10 7 -31 11 -49 6 -31 61 -90 118 -128 15 -9 27 -22 27 -27 0 -13 -79 0 -107 18 -30 19 -38 2 -10 -24 26 -24 90 -43 172 -49 74 -5 85 -7 108 -18 12 -5 31 -2 53 9 43 20 78 21 94 1 7 -8 20 -15 30 -15 9 0 30 -10 46 -22 39 -31 168 -40 188 -13 10 14 23 17 58 13 36 -4 47 -2 56 13 7 10 12 21 12 24 0 8 -115 -1 -129 -9 -6 -4 -22 1 -36 12 l-25 20 66 12 c38 7 77 22 92 35 34 27 60 37 67 25 7 -12 45 -13 45 -2 0 5 -11 19 -25 32 -14 13 -25 34 -25 46 0 32 -34 40 -59 15 -19 -19 -22 -19 -66 -5 -52 18 -59 34 -15 34 17 0 30 4 30 10 0 14 -78 32 -111 25 -37 -8 -125 -83 -149 -126 -19 -37 -19 -37 -124 -23 l-58 7 5 39 c4 33 0 45 -26 80 -18 23 -43 49 -57 59 -27 19 -107 32 -115 19z m708 -187 c-9 -7 -22 -13 -29 -13 -6 0 -17 -6 -23 -14 -11 -13 -50 -26 -98 -32 -17 -2 -23 2 -23 17 0 14 7 19 29 19 15 0 55 13 87 30 43 21 60 26 66 17 4 -7 1 -17 -9 -24z"/>
 <path d="M1695 904 c-20 -44 -47 -102 -61 -129 -34 -70 -44 -109 -51 -192 -7 -97 2 -121 27 -68 11 22 19 45 20 50 1 37 104 175 129 175 17 0 14 -4 -29 -51 -22 -24 -46 -55 -53 -69 -15 -31 -6 -118 13 -130 21 -13 23 -6 9 38 -10 36 -9 45 11 86 12 25 25 46 29 46 4 0 23 18 41 41 23 29 29 43 21 49 -9 5 -7 17 8 46 24 49 29 68 16 74 -6 3 -17 -10 -26 -28 -19 -37 -73 -92 -90 -92 -7 0 -5 9 5 23 9 12 24 33 33 45 20 28 19 115 -2 145 -12 18 -16 13 -50 -59z"/>
 <path d="M593 743 c10 -52 26 -83 43 -83 17 0 17 0 -8 73 -15 44 -44 52 -35 10z"/>
 </g>

</svg>