<svg width="150" height="48" viewBox="0 0 150 48" fill="none" xmlns="http://www.w3.org/2000/svg">
<path fill-rule="evenodd" clip-rule="evenodd" d="M48 24.1194C48 17.52 44.22 11.97 38.6866 9.31343C36.03 3.63 30.3 0 24.1194 0C17.52 0 11.97 3.78 9.31343 9.31343C3.63 11.97 0 17.7 0 24.1194C0 30.48 3.78 36.03 9.31343 38.6866C11.97 44.37 17.7 48 24.1194 48C30.48 48 36.03 44.22 38.6866 38.6866C44.37 36.03 48 30.3 48 24.1194ZM28.8955 18.8657C29.4925 20.4776 29.8507 22.1493 29.8507 23.8806C29.8507 25.6418 29.4925 27.3134 28.8955 28.8955C27.2836 29.4925 25.6119 29.8507 23.8806 29.8507C22.1194 29.8507 20.4478 29.4925 18.8657 28.8955C18.2687 27.2836 17.9104 25.6119 17.9104 23.8806C17.9104 22.1194 18.2687 20.4478 18.8657 18.8657C20.4776 18.2687 22.1493 17.9104 23.8806 17.9104C25.6418 17.9104 27.2836 18.2687 28.8955 18.8657ZM24.1194 3.10448C27.9735 3.10448 31.6671 4.84788 34.1493 7.8806C33.2628 7.62551 32.3468 7.53686 31.5224 7.64179C24.8412 7.53686 19.1973 11.4669 16.7164 17.194C16.597 17.1404 16.597 17.1404 16.7164 17.194C15.681 19.2088 15.1787 21.425 15.2836 23.8806C15.1787 24.705 15.2673 25.621 15.5224 26.5075C12.5192 24.0253 10.7463 20.3317 10.7463 16.4776C10.7463 9.07342 16.7152 3.10448 24.1194 3.10448ZM3.10448 23.8806C3.10448 20.0265 4.84788 16.3329 7.8806 13.8507C7.62551 14.7372 7.53686 15.6532 7.64179 16.4776C7.53686 23.1588 11.4669 28.8027 17.194 31.2836C17.1404 31.403 17.1404 31.403 17.194 31.2836C19.2088 32.319 21.425 32.8213 23.8806 32.7164C24.705 32.8213 25.621 32.7327 26.5075 32.4776C24.0253 35.4808 20.3317 37.2537 16.4776 37.2537C9.07342 37.2537 3.10448 31.2848 3.10448 23.8806ZM23.8806 44.4179C20.0265 44.4179 16.3329 42.6745 13.8507 39.6418C14.7372 39.8969 15.6532 39.9855 16.4776 39.8806C23.1588 39.9855 28.8027 36.0555 31.2836 30.3284C31.403 30.382 31.403 30.382 31.2836 30.3284C32.319 28.3136 32.8213 26.0974 32.7164 23.6418C32.8213 22.8174 32.7327 21.9014 32.4776 21.0149C35.4808 23.4971 37.2537 27.1907 37.2537 31.0448C37.2537 38.449 31.2848 44.4179 23.8806 44.4179ZM30.3284 16.7164C30.382 16.597 30.382 16.597 30.3284 16.7164C28.3136 15.681 26.0974 15.1787 23.6418 15.2836C22.8174 15.1787 21.9014 15.2673 21.0149 15.5224C23.4971 12.5192 27.1907 10.7463 31.0448 10.7463C38.449 10.7463 44.4179 16.7152 44.4179 24.1194C44.4179 27.9735 42.6745 31.6671 39.6418 34.1493C39.8969 33.2628 39.9855 32.3468 39.8806 31.5224C39.9855 24.8412 36.0555 19.1973 30.3284 16.7164Z" fill="#FD5F60"/>
<mask id="mask0" mask-type="alpha" maskUnits="userSpaceOnUse" x="0" y="0" width="48" height="48">
<path fill-rule="evenodd" clip-rule="evenodd" d="M48 24.1194C48 17.52 44.22 11.97 38.6866 9.31343C36.03 3.63 30.3 0 24.1194 0C17.52 0 11.97 3.78 9.31343 9.31343C3.63 11.97 0 17.7 0 24.1194C0 30.48 3.78 36.03 9.31343 38.6866C11.97 44.37 17.7 48 24.1194 48C30.48 48 36.03 44.22 38.6866 38.6866C44.37 36.03 48 30.3 48 24.1194ZM28.8955 18.8657C29.4925 20.4776 29.8507 22.1493 29.8507 23.8806C29.8507 25.6418 29.4925 27.3134 28.8955 28.8955C27.2836 29.4925 25.6119 29.8507 23.8806 29.8507C22.1194 29.8507 20.4478 29.4925 18.8657 28.8955C18.2687 27.2836 17.9104 25.6119 17.9104 23.8806C17.9104 22.1194 18.2687 20.4478 18.8657 18.8657C20.4776 18.2687 22.1493 17.9104 23.8806 17.9104C25.6418 17.9104 27.2836 18.2687 28.8955 18.8657ZM24.1194 3.10448C27.9735 3.10448 31.6671 4.84788 34.1493 7.8806C33.2628 7.62551 32.3468 7.53686 31.5224 7.64179C24.8412 7.53686 19.1973 11.4669 16.7164 17.194C16.597 17.1404 16.597 17.1404 16.7164 17.194C15.681 19.2088 15.1787 21.425 15.2836 23.8806C15.1787 24.705 15.2673 25.621 15.5224 26.5075C12.5192 24.0253 10.7463 20.3317 10.7463 16.4776C10.7463 9.07342 16.7152 3.10448 24.1194 3.10448ZM3.10448 23.8806C3.10448 20.0265 4.84788 16.3329 7.8806 13.8507C7.62551 14.7372 7.53686 15.6532 7.64179 16.4776C7.53686 23.1588 11.4669 28.8027 17.194 31.2836C17.1404 31.403 17.1404 31.403 17.194 31.2836C19.2088 32.319 21.425 32.8213 23.8806 32.7164C24.705 32.8213 25.621 32.7327 26.5075 32.4776C24.0253 35.4808 20.3317 37.2537 16.4776 37.2537C9.07342 37.2537 3.10448 31.2848 3.10448 23.8806ZM23.8806 44.4179C20.0265 44.4179 16.3329 42.6745 13.8507 39.6418C14.7372 39.8969 15.6532 39.9855 16.4776 39.8806C23.1588 39.9855 28.8027 36.0555 31.2836 30.3284C31.403 30.382 31.403 30.382 31.2836 30.3284C32.319 28.3136 32.8213 26.0974 32.7164 23.6418C32.8213 22.8174 32.7327 21.9014 32.4776 21.0149C35.4808 23.4971 37.2537 27.1907 37.2537 31.0448C37.2537 38.449 31.2848 44.4179 23.8806 44.4179ZM30.3284 16.7164C30.382 16.597 30.382 16.597 30.3284 16.7164C28.3136 15.681 26.0974 15.1787 23.6418 15.2836C22.8174 15.1787 21.9014 15.2673 21.0149 15.5224C23.4971 12.5192 27.1907 10.7463 31.0448 10.7463C38.449 10.7463 44.4179 16.7152 44.4179 24.1194C44.4179 27.9735 42.6745 31.6671 39.6418 34.1493C39.8969 33.2628 39.9855 32.3468 39.8806 31.5224C39.9855 24.8412 36.0555 19.1973 30.3284 16.7164Z" fill="white"/>
</mask>
<g mask="url(#mask0)">
<rect width="48" height="48" fill="#FD5E60"/>
</g>
<path fill-rule="evenodd" clip-rule="evenodd" d="M67.685 9.69414C67.8728 9.64712 68.0606 9.64712 68.2485 9.78818C68.3424 9.88222 68.4363 10.0233 68.4832 10.1173V37.8601C68.4832 38.1422 68.2954 38.3303 68.0137 38.3303H64.2572C63.9754 38.3303 63.7876 38.1422 63.7876 37.8601V11.622C63.7876 11.4339 63.8815 11.2929 64.0693 11.1988L67.685 9.69414ZM92.5719 28.0796C92.5719 21.8727 88.158 17.4057 82.0067 17.4057C75.7615 17.4057 71.3946 21.7787 71.3946 28.0326C71.3946 34.3334 75.7615 38.7064 82.0067 38.7064C88.1111 38.6594 92.5719 34.2394 92.5719 28.0796ZM75.8085 27.9855C75.8085 24.1768 78.3911 21.4025 82.0067 21.4025C85.5754 21.4025 88.158 24.2238 88.158 28.0796C88.158 31.8883 85.5754 34.6626 82.0067 34.6626C78.438 34.6626 75.8085 31.7943 75.8085 27.9855ZM115.956 28.0796C115.956 21.8727 111.542 17.4057 105.391 17.4057C99.1459 17.4057 94.7789 21.7787 94.7789 28.0326C94.7789 34.3334 99.1459 38.7064 105.391 38.7064C111.542 38.6594 115.956 34.2394 115.956 28.0796ZM99.1928 27.9855C99.1928 24.1768 101.775 21.4025 105.391 21.4025C108.96 21.4025 111.542 24.2238 111.542 28.0796C111.542 31.8883 108.96 34.6626 105.391 34.6626C101.869 34.6626 99.1928 31.7943 99.1928 27.9855ZM145.163 37.9071C145.163 38.1892 145.351 38.3773 145.633 38.3773H149.389C149.671 38.3773 149.859 38.1892 149.859 37.9071V26.6219C149.859 23.0953 148.873 20.5561 146.948 19.0985C145.398 17.9229 143.567 17.6408 142.346 17.6408C138.965 17.6408 136.993 19.6157 135.866 21.3085L135.725 21.4966L135.631 21.3085C135.021 20.1329 134.175 19.2395 133.048 18.5812C131.968 17.9699 130.654 17.6408 129.198 17.6408C127.132 17.6408 125.301 18.3931 123.845 19.8978L123.61 20.1329V18.3931C123.61 18.111 123.422 17.9229 123.141 17.9229H119.384C119.102 17.9229 118.915 18.111 118.915 18.3931V37.9071C118.915 38.1892 119.102 38.3773 119.384 38.3773H123.141C123.422 38.3773 123.61 38.1892 123.61 37.9071V26.1517C123.61 23.8476 125.442 21.9197 127.742 21.8727C130.09 21.8257 132.015 23.7536 132.015 26.1047V37.9071C132.015 38.1892 132.203 38.3773 132.485 38.3773H136.242C136.523 38.3773 136.711 38.1892 136.711 37.9071V26.1517C136.711 23.8476 138.542 21.9197 140.843 21.8727C143.191 21.8257 145.116 23.7536 145.116 26.1047V37.9071H145.163Z" fill="#FD5F60"/>
<mask id="mask1" mask-type="alpha" maskUnits="userSpaceOnUse" x="63" y="9" width="87" height="30">
<path fill-rule="evenodd" clip-rule="evenodd" d="M67.685 9.69414C67.8728 9.64712 68.0606 9.64712 68.2485 9.78818C68.3424 9.88222 68.4363 10.0233 68.4832 10.1173V37.8601C68.4832 38.1422 68.2954 38.3303 68.0137 38.3303H64.2572C63.9754 38.3303 63.7876 38.1422 63.7876 37.8601V11.622C63.7876 11.4339 63.8815 11.2929 64.0693 11.1988L67.685 9.69414ZM92.5719 28.0796C92.5719 21.8727 88.158 17.4057 82.0067 17.4057C75.7615 17.4057 71.3946 21.7787 71.3946 28.0326C71.3946 34.3334 75.7615 38.7064 82.0067 38.7064C88.1111 38.6594 92.5719 34.2394 92.5719 28.0796ZM75.8085 27.9855C75.8085 24.1768 78.3911 21.4025 82.0067 21.4025C85.5754 21.4025 88.158 24.2238 88.158 28.0796C88.158 31.8883 85.5754 34.6626 82.0067 34.6626C78.438 34.6626 75.8085 31.7943 75.8085 27.9855ZM115.956 28.0796C115.956 21.8727 111.542 17.4057 105.391 17.4057C99.1459 17.4057 94.7789 21.7787 94.7789 28.0326C94.7789 34.3334 99.1459 38.7064 105.391 38.7064C111.542 38.6594 115.956 34.2394 115.956 28.0796ZM99.1928 27.9855C99.1928 24.1768 101.775 21.4025 105.391 21.4025C108.96 21.4025 111.542 24.2238 111.542 28.0796C111.542 31.8883 108.96 34.6626 105.391 34.6626C101.869 34.6626 99.1928 31.7943 99.1928 27.9855ZM145.163 37.9071C145.163 38.1892 145.351 38.3773 145.633 38.3773H149.389C149.671 38.3773 149.859 38.1892 149.859 37.9071V26.6219C149.859 23.0953 148.873 20.5561 146.948 19.0985C145.398 17.9229 143.567 17.6408 142.346 17.6408C138.965 17.6408 136.993 19.6157 135.866 21.3085L135.725 21.4966L135.631 21.3085C135.021 20.1329 134.175 19.2395 133.048 18.5812C131.968 17.9699 130.654 17.6408 129.198 17.6408C127.132 17.6408 125.301 18.3931 123.845 19.8978L123.61 20.1329V18.3931C123.61 18.111 123.422 17.9229 123.141 17.9229H119.384C119.102 17.9229 118.915 18.111 118.915 18.3931V37.9071C118.915 38.1892 119.102 38.3773 119.384 38.3773H123.141C123.422 38.3773 123.61 38.1892 123.61 37.9071V26.1517C123.61 23.8476 125.442 21.9197 127.742 21.8727C130.09 21.8257 132.015 23.7536 132.015 26.1047V37.9071C132.015 38.1892 132.203 38.3773 132.485 38.3773H136.242C136.523 38.3773 136.711 38.1892 136.711 37.9071V26.1517C136.711 23.8476 138.542 21.9197 140.843 21.8727C143.191 21.8257 145.116 23.7536 145.116 26.1047V37.9071H145.163Z" fill="white"/>
</mask>
<g mask="url(#mask1)">
<rect x="63.5996" y="9.6001" width="89.4" height="30" fill="#24282D"/>
</g>
</svg>
