<svg width="240" height="160" viewBox="0 0 240 160" fill="none" xmlns="http://www.w3.org/2000/svg">
<g clip-path="url(#clip0)">
<rect width="240" height="160" fill="#111111"/>
<path d="M241.211 -0.326233V79.8644H162.04L241.211 -0.326233Z" fill="#4E3FCE"/>
<path d="M162.04 79.8644V160.055H82.868L162.04 79.8644Z" fill="#4E3FCE"/>
<path opacity="0.428404" d="M162.04 79.8644V-0.326233H241.211L162.04 79.8644Z" fill="#4E3FCE"/>
<path opacity="0.194587" d="M318.184 79.8644L239.012 -0.326233H318.184V79.8644Z" fill="#4E3FCE"/>
<path d="M241.211 124.415V160.055H206.024L241.211 124.415Z" fill="#4E3FCE"/>
<g opacity="0.2">
<path d="M-30.0058 160.055L-30.0057 79.8644L49.1659 79.8644L-30.0058 160.055Z" fill="#9387FF"/>
<path d="M49.1659 79.8644L49.1659 -0.326244L128.338 -0.326237L49.1659 79.8644Z" fill="#9387FF"/>
<path opacity="0.428404" d="M49.1659 79.8644L49.1659 160.055L-30.0058 160.055L49.1659 79.8644Z" fill="#9387FF"/>
<path d="M-30.0057 35.3141L-30.0057 -0.326213L5.1817 -0.32621L-30.0057 35.3141Z" fill="#9387FF"/>
</g>
<path d="M148.815 119.76L118.539 89.1518L149.147 58.5434L139.499 49.2278L99.575 89.1518L139.499 129.076L148.815 119.76ZM183.416 119.76L214.024 89.1518L183.416 58.5434L192.731 49.2278L232.655 89.1518L192.731 129.076L183.416 119.76V119.76Z" fill="#FBFBFB"/>
</g>
<defs>
<clipPath id="clip0">
<rect width="240" height="160" fill="white"/>
</clipPath>
</defs>
</svg>
