<svg width="512" height="512" viewBox="0 0 512 512" fill="none" xmlns="http://www.w3.org/2000/svg">
<rect width="512" height="512" fill="none"/>
<path d="M256 356C214.65 356 181 322.697 181 281.773C181 264.955 186.848 248.47 197.457 235.379C200.336 231.818 205.587 231.258 209.169 234.106C212.767 236.955 213.333 242.152 210.455 245.697C202.081 256.03 197.672 268.5 197.672 281.773C197.672 313.606 223.835 339.5 256 339.5C288.165 339.5 314.328 313.606 314.328 281.773C314.328 267.697 309.154 254.136 299.754 243.591C296.707 240.182 297.044 234.97 300.489 231.955C303.933 228.939 309.2 229.258 312.246 232.682C324.34 246.242 331 263.682 331 281.788C331 322.697 297.35 356 256 356Z" fill="#67E0A3"/>
<path d="M256 188.909C265.182 188.909 272.626 181.542 272.626 172.455C272.626 163.367 265.182 156 256 156C246.818 156 239.374 163.367 239.374 172.455C239.374 181.542 246.818 188.909 256 188.909Z" fill="#EDB88B"/>
<path d="M294.273 280.561C294.273 303.045 277.142 321.273 256 321.273C234.858 321.273 217.727 303.045 217.727 280.561C217.727 265.667 234.521 237.909 245.85 220.864C250.795 213.424 261.19 213.424 266.135 220.864C277.479 237.909 294.273 265.667 294.273 280.561Z" fill="#EDB88B"/>
<path d="M256 356C200.856 356 156 311.606 156 257.03C156 219.667 176.897 185.879 210.547 168.864C214.65 166.788 219.671 168.394 221.753 172.455C223.851 176.515 222.228 181.485 218.125 183.545C190.078 197.727 172.672 225.894 172.672 257.03C172.672 302.5 210.057 339.5 256 339.5C301.943 339.5 339.328 302.5 339.328 257.03C339.328 225.894 321.906 197.727 293.875 183.545C289.772 181.47 288.149 176.5 290.247 172.455C292.344 168.394 297.366 166.788 301.453 168.864C335.088 185.879 356 219.667 356 257.03C356 311.606 311.144 356 256 356Z" fill="#67E0A3"/>
</svg>
